ffmpeg version N-105290-gbca30570d2-20220116 Copyright (c) 2000-2022 the FFmpeg developers
  built with gcc 11.2.0 (crosstool-NG 1.24.0.498_5075e1f)
  configuration: --prefix=/ffbuild/prefix --pkg-config-flags=--static --pkg-config=pkg-config --cross-prefix=x86_64-w64-mingw32- --arch=x86_64 --target-os=mingw32 --enable-gpl --enable-version3 --disable-debug --disable-w32threads --enable-pthreads --enable-iconv --enable-libxml2 --enable-zlib --enable-libfreetype --enable-libfribidi --enable-gmp --enable-lzma --enable-fontconfig --enable-libvorbis --enable-opencl --disable-libpulse --enable-libvmaf --disable-libxcb --disable-xlib --enable-amf --enable-libaom --enable-avisynth --enable-libdav1d --enable-libdavs2 --disable-libfdk-aac --enable-ffnvcodec --enable-cuda-llvm --enable-frei0r --enable-libgme --enable-libass --enable-libbluray --enable-libmp3lame --enable-libopus --enable-librist --enable-libtheora --enable-libvpx --enable-libwebp --enable-lv2 --enable-libmfx --enable-libopencore-amrnb --enable-libopencore-amrwb --enable-libopenh264 --enable-libopenjpeg --enable-libopenmpt --enable-librav1e --enable-librubberband --enable-schannel --enable-sdl2 --enable-libsoxr --enable-libsrt --enable-libsvtav1 --enable-libtwolame --enable-libuavs3d --disable-libdrm --disable-vaapi --enable-libvidstab --enable-vulkan --enable-libshaderc --enable-libplacebo --enable-libx264 --enable-libx265 --enable-libxavs2 --enable-libxvid --enable-libzimg --enable-libzvbi --extra-cflags=-DLIBTWOLAME_STATIC --extra-cxxflags= --extra-ldflags=-pthread --extra-ldexeflags= --extra-libs=-lgomp --extra-version=20220116
  libavutil      57. 18.100 / 57. 18.100
  libavcodec     59. 20.100 / 59. 20.100
  libavformat    59. 17.101 / 59. 17.101
  libavdevice    59.  5.100 / 59.  5.100
  libavfilter     8. 25.100 /  8. 25.100
  libswscale      6.  5.100 /  6.  5.100
  libswresample   4.  4.100 /  4.  4.100
  libpostproc    56.  4.100 / 56.  4.100
Input #0, image2, from 'C:\Users\user\Documents\GitHub\dynamodb_related\pythonProject\engine\streaming_engine\asset\stream_0\upload_youtube_png_0.png':
  Duration: 00:00:00.04, start: 0.000000, bitrate: N/A
  Stream #0:0: Video: png, rgba(pc), 789x616 [SAR 6614:6614 DAR 789:616], 25 fps, 25 tbr, 25 tbn
Input #1, mp3, from 'C:\Users\user\Documents\GitHub\dynamodb_related\pythonProject\engine\streaming_engine\asset\audio.mp3':
  Metadata:
    major_brand     : M4A 
    minor_version   : 512
    compatible_brands: isomiso2
    encoder         : Lavf58.19.102
  Duration: 01:33:16.58, start: 0.025057, bitrate: 128 kb/s
  Stream #1:0: Audio: mp3, 44100 Hz, stereo, fltp, 128 kb/s
    Metadata:
      encoder         : Lavc58.34
Stream mapping:
  Stream #0:0 -> #0:0 (png (native) -> h264 (libx264))
  Stream #1:0 -> #0:1 (mp3 (mp3float) -> mp3 (libmp3lame))
Press [q] to stop, [?] for help
[libx264 @ 00000216e3046740] using SAR=1/1
[libx264 @ 00000216e3046740] using cpu capabilities: MMX2 SSE2Fast SSSE3 SSE4.2 AVX FMA3 BMI2 AVX2
[libx264 @ 00000216e3046740] profile High 4:4:4 Predictive, level 3.1, 4:4:4, 8-bit
[libx264 @ 00000216e3046740] 264 - core 164 - H.264/MPEG-4 AVC codec - Copyleft 2003-2021 - http://www.videolan.org/x264.html - options: cabac=0 ref=1 deblock=0:0:0 analyse=0:0 me=dia subme=0 psy=1 psy_rd=1.00:0.00 mixed_ref=0 me_range=16 chroma_me=1 trellis=0 8x8dct=0 cqm=0 deadzone=21,11 fast_pskip=1 chroma_qp_offset=6 threads=9 lookahead_threads=1 sliced_threads=0 nr=0 decimate=1 interlaced=0 bluray_compat=0 constrained_intra=0 bframes=0 weightp=0 keyint=250 keyint_min=25 scenecut=0 intra_refresh=0 rc_lookahead=0 rc=crf mbtree=0 crf=23.0 qcomp=0.60 qpmin=0 qpmax=69 qpstep=4 vbv_maxrate=2000 vbv_bufsize=1000 crf_max=0.0 nal_hrd=none filler=0 ip_ratio=1.40 aq=0
Output #0, flv, to 'rtmp://a.rtmp.youtube.com/live2/kts2-yda5-d5pe-r3me-8uay':
  Metadata:
    encoder         : Lavf59.17.101
  Stream #0:0: Video: h264 ([7][0][0][0] / 0x0007), yuv444p(tv, progressive), 789x616 [SAR 1:1 DAR 789:616], q=2-31, 2000 kb/s, 25 fps, 1k tbn
    Metadata:
      encoder         : Lavc59.20.100 libx264
    Side data:
      cpb: bitrate max/min/avg: 2000000/0/2000000 buffer size: 1000000 vbv_delay: N/A
  Stream #0:1: Audio: mp3 ([2][0][0][0] / 0x0002), 44100 Hz, stereo, fltp
    Metadata:
      encoder         : Lavc59.20.100 libmp3lame
frame=    1 fps=0.0 q=0.0 size=       0kB time=00:00:00.00 bitrate=N/A speed=   0x    frame=   12 fps=0.0 q=12.0 size=      35kB time=00:00:00.07 bitrate=3608.4kbits/s speed=0.154x    frame=   25 fps= 24 q=12.0 size=      83kB time=00:00:00.60 bitrate=1126.2kbits/s speed=0.588x    frame=   37 fps= 24 q=12.0 size=      97kB time=00:00:01.07 bitrate= 743.8kbits/s speed=0.701x    frame=   50 fps= 25 q=12.0 size=     113kB time=00:00:01.59 bitrate= 581.6kbits/s speed=0.783x    frame=   62 fps= 24 q=12.0 size=     128kB time=00:00:02.06 bitrate= 506.1kbits/s speed=0.807x    frame=   76 fps= 25 q=12.0 size=     145kB time=00:00:02.63 bitrate= 450.2kbits/s speed=0.863x    frame=   88 fps= 25 q=12.0 size=     160kB time=00:00:03.11 bitrate= 420.2kbits/s speed=0.874x    frame=   90 fps= 22 q=12.0 size=     162kB time=00:00:03.18 bitrate= 416.1kbits/s speed=0.783x    frame=   98 fps= 21 q=12.0 size=     172kB time=00:00:03.52 bitrate= 399.5kbits/s speed=0.767x    frame=  122 fps= 24 q=12.0 size=     200kB time=00:00:04.46 bitrate= 367.1kbits/s speed=0.876x    frame=  139 fps= 25 q=12.0 size=     221kB time=00:00:05.14 bitrate= 351.7kbits/s speed=0.918x    frame=  152 fps= 25 q=12.0 size=     237kB time=00:00:05.67 bitrate= 342.2kbits/s speed=0.927x    frame=  165 fps= 25 q=12.0 size=     253kB time=00:00:06.19 bitrate= 334.4kbits/s speed=0.932x    frame=  178 fps= 25 q=12.0 size=     269kB time=00:00:06.71 bitrate= 327.7kbits/s speed=0.939x    frame=  191 fps= 25 q=12.0 size=     285kB time=00:00:07.23 bitrate= 322.1kbits/s speed=0.945x    frame=  203 fps= 25 q=12.0 size=     299kB time=00:00:07.70 bitrate= 317.9kbits/s speed=0.943x    frame=  216 fps= 25 q=12.0 size=     315kB time=00:00:08.23 bitrate= 313.5kbits/s speed=0.948x    frame=  229 fps= 25 q=12.0 size=     331kB time=00:00:08.75 bitrate= 309.7kbits/s speed=0.951x    frame=  242 fps= 25 q=12.0 size=     347kB time=00:00:09.27 bitrate= 306.3kbits/s speed=0.955x    frame=  255 fps= 25 q=20.0 size=     363kB time=00:00:09.79 bitrate= 303.2kbits/s speed=0.958x    frame=  268 fps= 25 q=12.0 size=     424kB time=00:00:10.31 bitrate= 336.4kbits/s speed=0.96x    frame=  281 fps= 25 q=12.0 size=     448kB time=00:00:10.84 bitrate= 338.9kbits/s speed=0.963x    frame=  293 fps= 25 q=12.0 size=     463kB time=00:00:11.31 bitrate= 335.2kbits/s speed=0.961x    frame=  306 fps= 25 q=12.0 size=     479kB time=00:00:11.83 bitrate= 331.4kbits/s speed=0.964x    frame=  319 fps= 25 q=12.0 size=     495kB time=00:00:12.35 bitrate= 327.8kbits/s speed=0.966x    frame=  332 fps= 25 q=12.0 size=     510kB time=00:00:12.87 bitrate= 324.6kbits/s speed=0.968x    frame=  344 fps= 25 q=12.0 size=     525kB time=00:00:13.35 bitrate= 322.0kbits/s speed=0.967x    frame=  357 fps= 25 q=12.0 size=     541kB time=00:00:13.87 bitrate= 319.2kbits/s speed=0.969x    frame=  370 fps= 25 q=12.0 size=     556kB time=00:00:14.39 bitrate= 316.6kbits/s speed=0.97x    frame=  383 fps= 25 q=12.0 size=     572kB time=00:00:14.91 bitrate= 314.2kbits/s speed=0.972x    frame=  396 fps= 25 q=12.0 size=     588kB time=00:00:15.43 bitrate= 312.0kbits/s speed=0.973x    frame=  409 fps= 25 q=12.0 size=     604kB time=00:00:15.96 bitrate= 309.9kbits/s speed=0.974x    frame=  422 fps= 25 q=12.0 size=     620kB time=00:00:16.48 bitrate= 307.9kbits/s speed=0.976x    frame=  434 fps= 25 q=12.0 size=     634kB time=00:00:16.95 bitrate= 306.3kbits/s speed=0.974x    frame=  447 fps= 25 q=12.0 size=     650kB time=00:00:17.47 bitrate= 304.6kbits/s speed=0.975x    frame=  460 fps= 25 q=12.0 size=     666kB time=00:00:17.99 bitrate= 303.0kbits/s speed=0.976x    [flv @ 00000216e303ae40] Failed to update header with correct duration.
[flv @ 00000216e303ae40] Failed to update header with correct filesize.
frame=  467 fps= 25 q=-1.0 Lsize=     682kB time=00:00:18.64 bitrate= 299.7kbits/s speed=0.995x    
video:374kB audio:288kB subtitle:0kB other streams:0kB global headers:0kB muxing overhead: 3.104318%
[libx264 @ 00000216e3046740] frame I:2     Avg QP:19.17  size: 40530
[libx264 @ 00000216e3046740] frame P:465   Avg QP:12.20  size:   647
[libx264 @ 00000216e3046740] mb I  I16..4: 100.0%  0.0%  0.0%
[libx264 @ 00000216e3046740] mb P  I16..4:  0.4%  0.0%  0.0%  P16..4:  5.5%  0.0%  0.0%  0.0%  0.0%    skip:94.1%
[libx264 @ 00000216e3046740] coded y,u,v intra: 8.1% 5.9% 2.3% inter: 1.9% 0.1% 0.0%
[libx264 @ 00000216e3046740] i16 v,h,dc,p: 62% 34%  1%  3%
[libx264 @ 00000216e3046740] kb/s:163.62
Exiting normally, received signal 15.
